HIERARCHY
ROOT Hips
{
	OFFSET	0.00	0.00	0.00
	CHANNELS 6 Xposition Yposition Zposition Zrotation Xrotation Yrotation
	JOINT Spine
	{
		OFFSET	 0.00	0.01	 0.00
		CHANNELS 3 Zrotation Xrotation Yrotation
		JOINT Spine1
		{
			OFFSET	 0.00	 2.45913012437421	 0.00
			CHANNELS 3 Zrotation Xrotation Yrotation
            JOINT Neck
            {
                OFFSET	 0.00	 2.48462964506057	 0.00
                CHANNELS 3 Zrotation Xrotation Yrotation
                JOINT Head
                {
                    OFFSET	 0.00	 0.927524780924562	 0.00
                    CHANNELS 3 Zrotation Xrotation Yrotation
                    End Site 
                    {
                        OFFSET	 0.00	 1.14999962169752	 0.00
                    }
                }
            }
			JOINT LeftShoulder
			{
				OFFSET	 0.00	 2.48462964506057	 0.00
				CHANNELS 3 Zrotation Xrotation Yrotation
				JOINT LeftUpArm
				{
					OFFSET	 0.00	 1.24881979654096	 0.00
					CHANNELS 3 Zrotation Xrotation Yrotation
					JOINT LeftForeArm
					{
						OFFSET	 0.00	2.59758046908119	 0.00
						CHANNELS 3 Zrotation Xrotation Yrotation
						JOINT LeftHand
						{
							OFFSET	 0.00	2.45542024364365	 0.00
							CHANNELS 3 Zrotation Xrotation Yrotation
							JOINT LeftHandThumb 
							{
								OFFSET	 0.00	0.00	 0.00
								CHANNELS 3 Zrotation Xrotation Yrotation
								End Site
								{
									OFFSET	 0.00	0.00	1.00000003353624
								}
							}
							JOINT L_Wrist_End 
							{
								OFFSET	 0.00	0.99999967115358	 0.00
								CHANNELS 3 Zrotation Xrotation Yrotation
								End Site 
								{
									OFFSET	 0.00	 0.00	 0.00
								}
							}
						}
					}
				}
			}
			JOINT RightShoulder
			{
				OFFSET	 0.00	 2.48462964506057	 0.00
				CHANNELS 3 Zrotation Xrotation Yrotation
				JOINT RightUpArm
				{
					OFFSET	 0.00	 1.24881979654096	 0.00
					CHANNELS 3 Zrotation Xrotation Yrotation
					JOINT RightForeArm
					{
						OFFSET	 0.00	2.59758046908119	 0.00
						CHANNELS 3 Zrotation Xrotation Yrotation
						JOINT RightHand
						{
							OFFSET	 0.00	2.45542024364365	 0.00
							CHANNELS 3 Zrotation Xrotation Yrotation
							JOINT RightHandThumb 
							{
								OFFSET	 0.00	0.00	 0.00
								CHANNELS 3 Zrotation Xrotation Yrotation
								End Site
								{
									OFFSET	 0.00	0.00	1.00000003353624
								}
							}
							JOINT R_Wrist_End 
							{
								OFFSET	 0.00	0.99999967115358	 0.00
								CHANNELS 3 Zrotation Xrotation Yrotation
								End Site 
								{
									OFFSET	 0.00	 0.00	 0.00
								}
							}
						}
					}
				}
			}
		}
	}
	JOINT LeftUpLeg
	{
		OFFSET	 1.2719394002717	 0.00	 0.00
		CHANNELS 3 Zrotation Xrotation Yrotation
		JOINT LeftLowLeg
		{
			OFFSET	 0.00	-4.3429100912261	 0.00
			CHANNELS 3 Zrotation Xrotation Yrotation
			JOINT LeftFoot
			{
				OFFSET	 0.00	-4.48767017425826	 0.00
				CHANNELS 3 Zrotation Xrotation Yrotation
				JOINT LeftToeBase
                {
                    OFFSET	 0.00	0.00	 1.51507020887566
                    CHANNELS 3 Zrotation Xrotation Yrotation
                    End Site 
                    {
                        OFFSET	 0.00	0.00	 0.75000010571191
                    }
                }
			}
		}
	}
	JOINT RightUpLeg
	{
		OFFSET	 -1.2719393604653	 0.00	 0.00
		CHANNELS 3 Zrotation Xrotation Yrotation
		JOINT RightLowLeg
		{
			OFFSET	 0.00	-4.3429100912261	 0.00
			CHANNELS 3 Zrotation Xrotation Yrotation
			JOINT RightFoot
			{
				OFFSET	 0.00	-4.48767017425826	 0.00
				CHANNELS 3 Zrotation Xrotation Yrotation
				JOINT RightToeBase
                {
                    OFFSET	 0.00	0.00	 1.51507020887566
                    CHANNELS 3 Zrotation Xrotation Yrotation
                    End Site 
                    {
                        OFFSET	 0.00	0.00	 0.749999965609858
                    }
                }   
			}
		}
	}
}
MOTION 
Frames:	11 
Frame Time: 0.02 
  3.87510986328125 3.7262298583984377 9.758410034179688 -159.551 80.036 155.945 0.955929 -6.37303 2.86669 -7.42848 12.1839 3.42323 -7.91668 31.6316 8.09274 7.27838 -53.4155 13.5515 -95.81527 -1.6778 2.57368 -16.7066 32.9393 -12.6489 0.0 71.5431 0.0 11.1583 -11.7696 -24.4662 0.0 0.0 0.0 0.0 0.0 0.0 94.25862 -1.22135 15.4554 9.66422 35.3053 17.1359 0.0 71.2853 0.0 -3.70207 -8.61127 44.9485 0.0 0.0 0.0 0.0 0.0 0.0 6.23146 -20.3422 -4.54712 0.0 15.0671 0.0 8.34269 9.310579 -1.57742 0.0 -33.4144 0.0 4.54615 -3.33825 1.10506 0.0 13.6037 0.0 6.7198 4.571 -4.86655 0.0 -29.4706 0.0 
  3.928399963378906 3.668689880371094 9.769810180664063 -160.051 79.7446 156.263 0.806757 -6.22422 2.9633 -7.81812 12.1549 3.53408 -8.31652 31.2941 8.61923 7.4015 -53.6208 13.3828 -95.54448 -1.60912 2.68601 -16.4116 34.3683 -12.4043 0.0 72.3881 0.0 11.2325 -11.7847 -24.344 0.0 0.0 0.0 0.0 0.0 0.0 94.18138 -1.05029 15.8488 9.24638 35.6771 16.9484 0.0 72.7594 0.0 -3.76433 -8.56498 45.2269 0.0 0.0 0.0 0.0 0.0 0.0 6.01854 -20.0408 -4.10963 0.0 14.6214 0.0 8.75983 9.17682 -1.71357 0.0 -33.4258 0.0 4.14564 -3.8038 0.575548 0.0 14.4211 0.0 6.95353 4.9771004 -4.13093 0.0 -30.0559 0.0 
  3.98010009765625 3.613190002441406 9.78208984375 -160.318 79.3402 156.475 0.494801 -6.18871 3.05508 -7.71985 12.2838 3.69904 -8.76639 30.8761 9.02002 7.19114 -53.9196 12.9066 -95.60724 -1.39842 2.8231 -15.9203 35.9046 -12.3369 0.0 73.2135 0.0 10.3524 -11.5773 -25.2402 0.0 0.0 0.0 0.0 0.0 0.0 93.63145 -1.43335 17.0175 9.99255 36.0919 15.8967 0.0 74.4974 0.0 -3.15874 -8.43034 46.5908 0.0 0.0 0.0 0.0 0.0 0.0 5.84813 -19.8848 -3.84484 0.0 14.1972 0.0 9.1286 9.09911 -1.82455 0.0 -33.4492 0.0 3.78923 -4.34549 0.0243684 0.0 15.1715 0.0 7.22776 5.4878197 -3.31552 0.0 -30.252201 0.0 
  4.030390014648438 3.5588198852539064 9.795640258789062 -160.331 78.8434 156.482 0.217807 -6.66717 3.14487 -7.46638 13.2249 3.94199 -9.35776 30.1067 9.53153 6.77137 -54.0609 12.054 -95.51645 -0.879905 2.80237 -15.6739 37.3109 -12.2324 0.0 74.1875 0.0 10.1054 -11.8035 -25.5495 0.0 0.0 0.0 0.0 0.0 0.0 93.50016 -1.58085 16.8648 8.42664 36.8267 17.0114 0.0 75.8731 0.0 -3.12301 -8.27308 47.0092 0.0 0.0 0.0 0.0 0.0 0.0 5.73999 -19.8097 -3.6315 0.0 13.7579 0.0 9.4933 9.060841 -1.9104 0.0 -33.308 0.0 3.5031 -4.94745 -0.247934 0.0 15.8983 0.0 7.61015 6.1870203 -2.58542 0.0 -30.7253 0.0 
  4.080660095214844 3.5042999267578123 9.807960205078125 -159.855 78.5156 156.066 0.169643 -6.43586 3.17017 -7.68937 13.2058 3.96743 -9.76614 29.7732 9.9898 6.65693 -54.3438 11.8498 -95.21452 -0.806359 2.52533 -16.0306 38.6701 -11.0325 0.0 75.3076 0.0 10.8672 -12.2755 -25.4675 0.0 0.0 0.0 0.0 0.0 0.0 93.39219 -1.68914 17.4774 8.42724 37.2894 16.5748 0.0 77.456 0.0 -2.98814 -7.63346 46.8543 0.0 0.0 0.0 0.0 0.0 0.0 5.59061 -19.5435 -3.73503 0.0 13.3014 0.0 9.80569 9.059629 -1.76369 0.0 -33.0959 0.0 3.2464 -5.27215 -0.226406 0.0 16.471 0.0 8.17764 6.84803 -2.00569 0.0 -31.1377 0.0 
  4.129440002441406 3.4522601318359376 9.819010009765625 -159.421 78.0662 155.676 0.168469 -6.25548 3.29311 -7.84466 13.0517 4.07521 -10.1495 29.5974 10.3184 6.50219 -54.6458 11.544 -95.11261 -0.404757 3.00728 -15.6179 39.9353 -10.8171 0.0 76.5934 0.0 11.103 -12.3212 -24.9497 0.0 0.0 0.0 0.0 0.0 0.0 93.24572 -2.00129 17.8734 8.36259 37.844 16.1971 0.0 79.1321 0.0 -3.25876 -7.58745 46.3286 0.0 0.0 0.0 0.0 0.0 0.0 5.51231 -19.4296 -3.87578 0.0 12.9021 0.0 10.0176 9.017 -1.60366 0.0 -32.9172 0.0 3.01248 -5.82968 -0.487861 0.0 17.2212 0.0 8.53701 7.57295 -1.19293 0.0 -31.549 0.0 
  4.175950012207031 3.4016900634765626 9.829000244140625 -158.98 77.6465 155.268 0.0643758 -6.16292 3.30005 -7.84357 13.153 4.11071 -10.5501 29.1815 10.7251 6.1752 -54.851 11.2543 -94.98483 -0.23704 2.83317 -15.8592 41.071 -10.0112 0.0 78.0145 0.0 10.7928 -12.3417 -24.9101 0.0 0.0 0.0 0.0 0.0 0.0 93.11282 -2.0666 18.1948 7.96878 38.3932 16.1223 0.0 80.8283 0.0 -3.36776 -7.52868 46.0181 0.0 0.0 0.0 0.0 0.0 0.0 5.45894 -19.3434 -3.92183 0.0 12.612 0.0 10.2691 8.91239 -1.52089 0.0 -32.7542 0.0 2.79414 -6.35935 -0.659152 0.0 17.951 0.0 8.94546 8.2897 -0.398459 0.0 -31.9577 0.0 
  4.219809875488282 3.351820068359375 9.838309936523437 -158.787 77.2762 155.063 -0.169353 -6.01693 3.21846 -7.73442 13.1165 4.06511 -11.1301 28.831 11.3581 5.94485 -55.0447 10.9852 -94.98665 -0.228612 2.92805 -15.8926 42.19 -9.23433 0.0 79.4091 0.0 10.7708 -12.2664 -25.9631 0.0 0.0 0.0 0.0 0.0 0.0 92.86152 -2.02569 18.6445 7.93836 38.9482 15.5645 0.0 82.534 0.0 -3.31786 -7.35518 47.1575 0.0 0.0 0.0 0.0 0.0 0.0 5.3857 -19.2523 -3.69682 0.0 12.371 0.0 10.6062 8.79104 -1.60548 0.0 -32.6784 0.0 2.54324 -6.87761 -0.704865 0.0 18.6947 0.0 9.29047 8.951281 0.285864 0.0 -32.2567 0.0 
  4.2610299682617185 3.3026199340820312 9.84655029296875 -158.73 76.9523 154.916 -0.343016 -5.84114 3.31231 -7.83496 13.0722 4.18368 -11.5049 28.6424 11.774 5.91719 -55.3648 10.8452 -94.81557 -0.106729 2.91862 -16.1931 43.3906 -8.04765 0.0 80.7897 0.0 10.783 -12.6148 -27.2417 0.0 0.0 0.0 0.0 0.0 0.0 92.63539 -2.31596 19.3566 8.4637 39.515 14.5458 0.0 84.2799 0.0 -3.1945 -7.30546 47.2409 0.0 0.0 0.0 0.0 0.0 0.0 5.32855 -19.1096 -3.25847 0.0 12.1157 0.0 10.9249 8.648661 -1.84343 0.0 -32.613503 0.0 2.26717 -7.40022 -0.674241 0.0 19.4777 0.0 9.69124 9.62132 1.00424 0.0 -32.5325 0.0 
  4.300740051269531 3.2536300659179687 9.8535498046875 -158.758 76.5599 154.86 -0.446084 -5.70002 3.37988 -8.00503 12.9219 4.24966 -11.9835 28.4064 12.343 5.97936 -55.5686 10.6391 -94.66262 -0.034401 3.00256 -16.456 44.4749 -6.72525 0.0 82.2342 0.0 10.904 -12.902 -28.0513 0.0 0.0 0.0 0.0 0.0 0.0 92.41576 -2.46652 19.8782 8.98459 40.0058 13.6259 0.0 86.0993 0.0 -3.16521 -6.84664 47.0643 0.0 0.0 0.0 0.0 0.0 0.0 5.27815 -19.0512 -2.92479 0.0 11.8773 0.0 11.2547 8.5000305 -1.98346 0.0 -32.636803 0.0 2.02426 -7.95285 -0.571575 0.0 20.1551 0.0 10.0557 10.32439 1.66564 0.0 -32.7803 0.0 
  4.339750061035156 3.2047000122070313 9.861160278320312 -158.448 76.1813 154.467 -0.426134 -5.53662 3.46754 -8.24156 12.7836 4.31545 -12.3366 28.2172 12.7575 5.96146 -55.7443 10.5113 -94.55158 0.138875 3.10466 -16.6771 45.3466 -5.3762 0.0 83.7837 0.0 10.9559 -12.9099 -27.9538 0.0 0.0 0.0 0.0 0.0 0.0 92.41007 -2.57814 19.857 8.85963 40.6168 13.3436 0.0 88.045 0.0 -3.41875 -6.95621 45.9984 0.0 0.0 0.0 0.0 0.0 0.0 5.27445 -18.9848 -2.79158 0.0 11.7205 0.0 11.5344 8.341801 -1.92473 0.0 -32.538498 0.0 1.85507 -8.39728 -0.474131 0.0 20.6973 0.0 10.4826 11.14935 2.3662 0.0 -33.0387 0.0 
